# xmcd CD database file
#
# Track frame offsets:
#	150
#	19548
#	35827
#	52284
#	68783
#	86923
#	100485
#	118305
#	133120
#	149408
#	167720
#	186011
#	198893
#
# Disc length: 2835 seconds
#
# Revision: 0
# Processed by: cddbd v1.5.2PL0 Copyright (c) Steve Scherf et al.
# Submitted via: CDex 1.79
#
DISCID=c70b110d
DTITLE=Billy Rawlett - What`s A Poor Boy To Do
DYEAR=1999
DGENRE=Country
TTITLE0=Country Girl
TTITLE1=Reasons For Leaving
TTITLE2=Yes She`s Mine
TTITLE3=Love Is Blind
TTITLE4=Love Takes Its Toll
TTITLE5=Til My Heart Won`t Beat
TTITLE6=Rumors On Him
TTITLE7=Hard To Resist
TTITLE8=Old No. 9
TTITLE9=Love`s Gonna Rule
TTITLE10=Lost Corridor
TTITLE11=Get By Love
TTITLE12=What`s A Poor Boy To Do
EXTD=YEAR: 1999
EXTT0=
EXTT1=
EXTT2=
EXTT3=
EXTT4=
EXTT5=
EXTT6=
EXTT7=
EXTT8=
EXTT9=
EXTT10=
EXTT11=
EXTT12=
PLAYORDER=
